<svg xmlns="http://www.w3.org/2000/svg" xmlns:xlink="http://www.w3.org/1999/xlink" width="102" zoomAndPan="magnify" viewBox="0 0 76.5 36.750001" height="49" preserveAspectRatio="xMidYMid meet" version="1.0"><defs><clipPath id="780eb71217"><path d="M 0.0117188 9.558594 L 75.992188 9.558594 L 75.992188 26.695312 L 0.0117188 26.695312 Z M 0.0117188 9.558594 " clip-rule="nonzero"/></clipPath></defs><g clip-path="url(#780eb71217)"><path fill="#f50514" d="M 8.421875 12.230469 L 8.421875 13.863281 L 1.636719 13.863281 L 1.636719 25.101562 L 13.101562 25.101562 L 13.101562 18.429688 L 14.722656 18.429688 L 14.722656 26.695312 L 0.0195312 26.695312 L 0.0195312 12.230469 Z M 14.722656 9.558594 L 14.722656 12.230469 L 17.433594 12.230469 L 17.433594 13.863281 L 14.722656 13.863281 L 14.722656 16.535156 L 13.101562 16.535156 L 13.101562 13.863281 L 10.347656 13.863281 L 10.347656 12.230469 L 13.101562 12.230469 L 13.101562 9.558594 Z M 6.757812 22.949219 L 6.757812 18.429688 L 5.226562 18.429688 L 5.226562 17.265625 L 5.402344 17.265625 C 5.882812 17.265625 6.277344 17.179688 6.539062 16.964844 C 6.800781 16.75 6.976562 16.363281 6.976562 15.886719 L 8.421875 15.886719 L 8.421875 22.949219 Z M 19.359375 19.503906 C 19.359375 16.964844 20.980469 15.070312 23.515625 15.070312 C 26.054688 15.070312 27.675781 16.964844 27.675781 19.503906 C 27.675781 22.042969 26.054688 23.894531 23.515625 23.894531 C 20.980469 23.894531 19.359375 22.042969 19.359375 19.503906 Z M 25.878906 19.503906 C 25.878906 17.824219 25.09375 16.492188 23.515625 16.492188 C 21.941406 16.492188 21.109375 17.824219 21.109375 19.503906 C 21.109375 21.183594 21.898438 22.519531 23.515625 22.519531 C 25.136719 22.476562 25.878906 21.183594 25.878906 19.503906 Z M 29.164062 15.242188 L 30.957031 15.242188 L 33.84375 19.976562 C 34.105469 20.453125 34.457031 21.183594 34.457031 21.183594 L 34.5 21.183594 C 34.5 21.183594 34.457031 20.324219 34.457031 19.71875 L 34.457031 15.242188 L 36.164062 15.242188 L 36.164062 23.722656 L 34.457031 23.722656 L 31.480469 19.03125 C 31.21875 18.601562 30.867188 17.867188 30.867188 17.867188 L 30.824219 17.867188 C 30.824219 17.867188 30.867188 18.773438 30.867188 19.332031 L 30.867188 23.722656 L 29.164062 23.722656 Z M 38.089844 15.242188 L 44.433594 15.242188 L 44.433594 16.664062 L 39.839844 16.664062 L 39.839844 18.558594 L 43.863281 18.558594 L 43.863281 19.976562 L 39.839844 19.976562 L 39.839844 22.261719 L 44.476562 22.261719 L 44.476562 23.722656 L 38.089844 23.722656 Z M 49.992188 15.242188 C 50.996094 15.242188 51.742188 15.542969 52.265625 16.019531 C 52.746094 16.492188 53.054688 17.179688 53.054688 17.957031 C 53.054688 19.546875 51.960938 20.625 50.164062 20.625 L 48.066406 20.625 L 48.066406 23.679688 L 46.273438 23.679688 L 46.273438 15.242188 Z M 47.976562 19.246094 L 49.773438 19.246094 C 50.691406 19.246094 51.171875 18.730469 51.171875 18 C 51.171875 17.222656 50.648438 16.75 49.816406 16.75 L 47.976562 16.75 Z M 54.277344 15.242188 L 56.03125 15.242188 L 56.03125 22.261719 L 60.054688 22.261719 L 60.054688 23.722656 L 54.277344 23.722656 Z M 61.019531 15.242188 L 62.769531 15.242188 L 62.769531 21.011719 C 62.769531 21.871094 63.207031 22.519531 64.386719 22.519531 C 65.480469 22.519531 66.007812 21.871094 66.007812 21.011719 L 66.007812 15.242188 L 67.757812 15.242188 L 67.757812 21.011719 C 67.757812 22.820312 66.617188 23.894531 64.429688 23.894531 C 62.15625 23.851562 61.019531 22.820312 61.019531 20.96875 Z M 70.6875 21.097656 C 70.820312 22.128906 71.386719 22.519531 72.613281 22.519531 C 73.488281 22.519531 74.277344 22.214844 74.277344 21.441406 C 74.277344 20.625 73.445312 20.453125 72.132812 20.148438 C 70.601562 19.804688 69.15625 19.417969 69.15625 17.652344 C 69.15625 15.976562 70.558594 15.113281 72.4375 15.113281 C 74.363281 15.113281 75.632812 16.0625 75.765625 17.738281 L 74.101562 17.738281 C 74.011719 16.878906 73.3125 16.449219 72.4375 16.449219 C 71.519531 16.449219 70.863281 16.835938 70.863281 17.4375 C 70.863281 18.125 71.476562 18.34375 72.746094 18.601562 C 74.539062 18.988281 75.984375 19.375 75.984375 21.226562 C 75.984375 22.949219 74.582031 23.894531 72.613281 23.894531 C 70.339844 23.894531 69.023438 22.863281 68.980469 21.097656 Z M 70.6875 21.097656 " fill-opacity="1" fill-rule="nonzero"/></g></svg>