<svg width="24" height="24" viewBox="0 0 24 24" fill="none" xmlns="http://www.w3.org/2000/svg">
<g clip-path="url(#clip0_40566_35629)">
<path d="M14.4555 7.01592C14.8544 7.47455 15.0538 8.08788 15.0538 8.85593V12.5137H13.4208V9.11225C13.4208 8.21 13.0703 7.75888 12.3694 7.75888C12.1158 7.75294 11.8656 7.8189 11.6479 7.94913C11.4391 8.0798 11.275 8.27094 11.1774 8.49714C11.0641 8.7619 11.0087 9.04789 11.0152 9.33583V12.5124H9.38281V6.47261H10.5018L10.8262 7.22212C10.9378 7.08072 11.0675 6.95471 11.2122 6.84737C11.3603 6.73763 11.5197 6.6439 11.6876 6.56773C11.8614 6.48868 12.0433 6.42866 12.2301 6.38874C12.4268 6.3471 12.6273 6.32653 12.8284 6.32738C13.1338 6.31326 13.4385 6.36778 13.7201 6.48693C14.0017 6.60609 14.253 6.78685 14.4555 7.01592V7.01592Z" fill="#040707"/>
<path d="M21.9667 9.95112H17.403C17.4456 10.3146 17.6185 10.6503 17.8896 10.8962C18.1681 11.1235 18.5203 11.2409 18.8795 11.2261C19.1409 11.2299 19.399 11.1665 19.629 11.042C19.8476 10.9239 20.0295 10.7478 20.1547 10.5331H21.8773C21.6739 11.1651 21.2727 11.715 20.733 12.1018C20.1933 12.4885 19.5436 12.6915 18.8797 12.681C18.4635 12.6918 18.0497 12.6159 17.6645 12.458C17.2794 12.3 16.9313 12.0636 16.6426 11.7637C16.3487 11.4646 16.1181 11.1095 15.9644 10.7194C15.8107 10.3293 15.737 9.91225 15.7479 9.49311C15.7465 9.14445 15.7974 8.79755 15.8988 8.46397C15.9939 8.14715 16.1413 7.84846 16.335 7.58028C16.5218 7.32274 16.7462 7.09464 17.0006 6.90359C17.2613 6.70972 17.5523 6.56041 17.8618 6.46174C18.1907 6.35602 18.5342 6.30313 18.8797 6.30505C19.4507 6.29637 20.0133 6.44331 20.5072 6.73013C20.9774 7.00227 21.3613 7.4016 21.6146 7.8822C21.873 8.37148 22.0056 8.91734 22.0004 9.47061C22 9.63136 21.9888 9.79189 21.9667 9.95112ZM17.9573 7.99369C17.699 8.20876 17.5199 8.50393 17.4484 8.83238H20.3677C20.3032 8.60543 20.1929 8.39411 20.0434 8.21155C19.905 8.0462 19.731 7.91425 19.5345 7.82554C19.3285 7.73429 19.1052 7.68852 18.8799 7.69135C18.5462 7.6807 18.2193 7.78772 17.9565 7.99369H17.9573Z" fill="#040707"/>
<path d="M5.35551 6C4.69199 6 4.04339 6.19676 3.4917 6.56538C2.94001 6.93401 2.51001 7.45795 2.2561 8.07096C2.00218 8.68396 1.93575 9.3585 2.0652 10.0093C2.19464 10.66 2.51415 11.2578 2.98332 11.727C3.4525 12.1961 4.05026 12.5156 4.70102 12.6451C5.35179 12.7745 6.02632 12.7081 6.63932 12.4542C7.25233 12.2003 7.77627 11.7703 8.1449 11.2186C8.51353 10.6669 8.71028 10.0183 8.71028 9.35477C8.71028 8.46503 8.35683 7.61174 7.72769 6.98259C7.09855 6.35345 6.24525 6 5.35551 6V6ZM6.08987 11.3979C6.07759 11.4096 6.06308 11.4187 6.04719 11.4247C6.0313 11.4307 6.01437 11.4334 5.99741 11.4327H5.99455C5.91702 11.4327 5.8397 11.4327 5.76237 11.4327H5.13826C5.03599 11.4327 4.9918 11.3881 4.9918 11.2877V10.9432C4.9918 10.0697 4.9918 9.84715 4.9918 8.86588L4.95887 8.87918C4.91148 8.90521 4.86114 8.92547 4.80892 8.93952L4.80279 8.94198C4.77254 8.95628 4.73998 8.96508 4.70664 8.96795C4.68005 8.97368 4.65387 8.98003 4.62748 8.98616C4.57798 8.99803 4.52704 9.0103 4.47386 9.01869H4.47038C4.46138 9.0198 4.45248 9.02165 4.44378 9.0242L4.43335 9.02728H4.42476C4.41372 9.02958 4.40249 9.03088 4.39121 9.03117L4.2918 9.04098L4.23268 9.04671C4.21452 9.0495 4.19596 9.04831 4.1783 9.04323C4.16064 9.03814 4.1443 9.02928 4.1304 9.01725C4.11727 9.00495 4.10698 8.98995 4.10023 8.97328C4.09349 8.9566 4.09045 8.93867 4.09133 8.9207C4.09201 8.64032 4.09201 8.36007 4.09133 8.07996C4.09016 8.06325 4.09249 8.04647 4.09816 8.0307C4.10383 8.01494 4.11272 8.00053 4.12426 7.98839C4.13581 7.97624 4.14976 7.96664 4.16522 7.96018C4.18068 7.95372 4.19731 7.95056 4.21406 7.95089C4.26204 7.94701 4.30948 7.93817 4.35562 7.9245L4.38365 7.91734C4.42442 7.90802 4.46406 7.8943 4.50188 7.87642L4.50638 7.87438L4.6418 7.81465C4.75912 7.7692 4.86098 7.69111 4.93534 7.58963C4.95989 7.55392 4.97681 7.51353 4.98505 7.47099C4.98893 7.43473 5.00687 7.40144 5.03502 7.37827C5.06317 7.35509 5.09928 7.34388 5.13561 7.34703H5.98228C6.01902 7.34331 6.05575 7.35418 6.08455 7.3773C6.09846 7.39089 6.10913 7.40744 6.11579 7.4257C6.12244 7.44397 6.12491 7.46351 6.12301 7.48286V8.81903C6.12301 9.42555 6.12301 9.92611 6.12301 10.8573V10.9669C6.12301 11.0792 6.12301 11.1919 6.12465 11.3038C6.12581 11.3211 6.12331 11.3384 6.11732 11.3546C6.11132 11.3708 6.10197 11.3856 6.08987 11.3979V11.3979Z" fill="#040707"/>
<path d="M6.52677 17.1982C6.30274 17.0726 6.11814 16.8871 5.99369 16.6625C5.86432 16.4302 5.79789 16.1682 5.80099 15.9023C5.79608 15.706 5.83105 15.5106 5.90378 15.3282C5.97652 15.1457 6.08551 14.9799 6.22416 14.8408C6.36282 14.7016 6.52825 14.5921 6.71047 14.5187C6.89268 14.4453 7.08787 14.4097 7.28425 14.4139C7.60042 14.4068 7.90995 14.5052 8.16386 14.6938C8.41059 14.8783 8.58812 15.1404 8.66789 15.438H8.22461C8.1442 15.2596 8.0129 15.1091 7.8472 15.0051C7.679 14.8993 7.48379 14.8443 7.28507 14.8468C7.14875 14.8434 7.01324 14.8687 6.8873 14.921C6.76136 14.9733 6.64781 15.0514 6.55397 15.1504C6.45751 15.2499 6.38191 15.3677 6.33161 15.4969C6.28131 15.626 6.25731 15.764 6.26104 15.9025C6.25854 16.0894 6.30397 16.2739 6.39299 16.4383C6.4785 16.5959 6.60529 16.7273 6.75976 16.8183C6.91873 16.9122 7.10045 16.9606 7.28507 16.9582C7.48256 16.9612 7.67642 16.9051 7.84188 16.7973C8.00758 16.6876 8.13852 16.5329 8.21929 16.3513H8.67321C8.59434 16.6542 8.41469 16.9211 8.16386 17.1082C7.91011 17.2973 7.60067 17.3967 7.28425 17.3907C7.01925 17.394 6.75803 17.3277 6.52677 17.1982V17.1982Z" fill="#040707"/>
<path d="M12.0869 14.4774V17.3275H11.7122L11.6647 16.8947C11.5319 17.0523 11.3649 17.1777 11.1765 17.2614C10.9779 17.349 10.7628 17.3931 10.5458 17.3907C10.3509 17.3957 10.1571 17.3606 9.97642 17.2875C9.79572 17.2144 9.63198 17.1049 9.49539 16.9659C9.2241 16.6781 9.073 16.2976 9.073 15.9021C9.073 15.5067 9.2241 15.1262 9.49539 14.8384C9.63198 14.6994 9.79572 14.5899 9.97642 14.5168C10.1571 14.4437 10.3509 14.4086 10.5458 14.4136C10.7649 14.4108 10.9819 14.4558 11.1818 14.5455C11.37 14.6308 11.5368 14.7571 11.6701 14.9151L11.7282 14.477L12.0869 14.4774ZM11.3321 16.6572C11.5221 16.4517 11.6276 16.1822 11.6276 15.9024C11.6276 15.6226 11.5221 15.3531 11.3321 15.1477C11.1299 14.9542 10.8606 14.8465 10.5808 14.847C10.3009 14.8475 10.032 14.9562 9.83046 15.1504C9.6389 15.354 9.53224 15.623 9.53224 15.9026C9.53224 16.1821 9.6389 16.4511 9.83046 16.6547C10.032 16.8489 10.3009 16.9576 10.5808 16.9581C10.8606 16.9586 11.1299 16.8509 11.3321 16.6574V16.6572Z" fill="#040707"/>
<path d="M14.5413 14.4614V14.8889H14.251C14.1401 14.8824 14.0291 14.9001 13.9257 14.9406C13.8223 14.9812 13.7288 15.0436 13.6519 15.1237C13.4998 15.3078 13.4234 15.5427 13.4381 15.781V17.3274H12.9895V14.4771H13.3062L13.38 14.91C13.4803 14.7637 13.6164 14.6457 13.7753 14.5671C13.9343 14.4886 14.1108 14.4522 14.2878 14.4614H14.5413Z" fill="#040707"/>
<path d="M17.6816 13.4585V17.3271H17.3386L17.2752 16.9207C17.1372 17.0653 16.9719 17.1812 16.789 17.2618C16.6061 17.3423 16.409 17.386 16.2091 17.3901C16.0093 17.3943 15.8106 17.359 15.6244 17.2861C15.4383 17.2133 15.2684 17.1044 15.1244 16.9657C14.8579 16.6751 14.71 16.2951 14.71 15.9008C14.71 15.5065 14.8579 15.1266 15.1244 14.836C15.4085 14.5649 15.7861 14.4137 16.1787 14.4137C16.5714 14.4137 16.9489 14.5649 17.233 14.836V13.4585H17.6816ZM16.9638 16.6543C17.1566 16.451 17.2642 16.1816 17.2647 15.9014C17.2652 15.6212 17.1585 15.3514 16.9665 15.1473C16.8685 15.0482 16.7511 14.9703 16.6217 14.9186C16.4923 14.8668 16.3536 14.8423 16.2143 14.8464C16.0712 14.8455 15.9294 14.8733 15.7972 14.9283C15.6731 14.9788 15.5602 15.0533 15.4648 15.1473C15.3706 15.2431 15.2969 15.3571 15.2484 15.4824C15.1954 15.6159 15.1685 15.7583 15.1692 15.902C15.1651 16.0412 15.1891 16.1799 15.2399 16.3096C15.2907 16.4393 15.3672 16.5574 15.4648 16.6568C15.5617 16.7558 15.6781 16.8337 15.8067 16.8855C15.9352 16.9373 16.0731 16.9619 16.2117 16.9577C16.3511 16.9615 16.4899 16.9365 16.6193 16.8843C16.7487 16.8321 16.866 16.7538 16.9638 16.6543V16.6543Z" fill="#040707"/>
</g>
<defs>
<clipPath id="clip0_40566_35629">
<rect width="20" height="11.3907" fill="white" transform="translate(2 6)"/>
</clipPath>
</defs>
</svg>
