<svg width="107" height="32" viewBox="0 0 107 32" fill="none" xmlns="http://www.w3.org/2000/svg">
<path fill-rule="evenodd" clip-rule="evenodd" d="M48.4933 8.4054C48.2821 9.81424 47.7655 11.2934 47.6012 12.397H43.3985V14.1347H48.0475C47.9535 15.2613 47.39 16.999 47.39 16.999H43.4218V18.3136H48.2821C48.0708 19.793 47.578 21.2017 47.39 22.7281H38.7728C38.7728 19.4877 38.7491 15.379 38.7491 12.35C38.7491 11.9744 37.6694 11.4578 37.6694 11.4578L38.7728 8.3584C38.7491 8.4054 45.347 8.42876 48.4933 8.4054ZM36.3309 8.4054C36.3309 15.8486 37.4345 23.5029 30.1792 23.5029C25.3424 23.5029 24.544 17.6798 24.8494 13.2891C25.1077 12.209 23.957 11.7394 23.957 11.7394C23.957 11.7394 24.591 9.55592 24.8494 8.42876H29.2635C29.2635 11.2934 28.0191 18.5719 30.8132 18.5956C33.0908 18.6426 32.5742 11.8567 32.5742 8.42876C33.4195 8.28803 34.8047 8.47576 36.3309 8.4054Z" fill="#0070A5"/>
<path fill-rule="evenodd" clip-rule="evenodd" d="M104.188 8.2876L103.507 12.4436H101.089V22.5396H96.4397V12.4436H94.0212L95.1251 8.2876H104.188Z" fill="#009D5B"/>
<path fill-rule="evenodd" clip-rule="evenodd" d="M20.4121 8.40578V18.0092H23.7227C23.3939 19.5821 23.1356 20.8968 22.6192 22.7517H15.9978V12.4207C15.9978 12.0451 15.5047 11.7398 15.317 11.4816C15.7161 10.6129 15.8336 9.5093 15.9743 8.38233C17.4771 8.40578 18.9328 8.40578 20.4121 8.40578ZM7.59209 19.0186C8.83647 19.0656 10.0575 19.1126 10.034 17.9152C10.034 16.3418 8.7896 16.8114 7.59209 16.8114V19.0186ZM7.59209 13.712C8.60169 13.8293 9.23565 13.5948 9.58789 13.0549C9.6348 12.6324 9.6348 12.6324 9.37661 12.1624C9.04779 11.8106 8.2495 11.9748 7.61563 11.9511C7.59209 12.5147 7.59209 13.1252 7.59209 13.712ZM12.4523 15.2617C14.5891 16.1073 14.9882 19.2298 14.002 21.0145C12.4523 23.7853 7.09899 22.7754 3.17784 22.7754V12.1624C3.17784 11.9041 2.45006 11.9041 2.28564 11.7166C2.45006 10.472 2.84915 9.46239 3.17784 8.40578C9.42348 7.27872 17.1483 9.29802 12.4523 15.2617Z" fill="#0070A5"/>
<path fill-rule="evenodd" clip-rule="evenodd" d="M86.5086 15.0261C89.3492 15.8242 89.3259 11.8327 86.7194 12.3726C86.7194 12.9361 86.5086 14.1572 86.5086 15.0261ZM90.9225 17.8904C91.6504 19.675 92.8245 20.9897 93.5756 22.7506H88.504C87.8232 21.671 87.1889 20.3089 86.5086 19.2055V22.7506H82.0941V12.6076C82.0941 12.138 81.3193 11.7857 80.9908 11.4805C81.5776 10.6586 81.5776 9.27339 82.0941 8.38124C88.8796 6.9724 96.0411 9.97786 92.9185 16.1062C92.4722 16.9983 91.7444 17.0686 90.9225 17.8904ZM72.3503 17.4678H74.5571C74.2518 16.0122 74.0406 14.7678 73.4537 13.2651C73.1015 14.6738 72.7492 16.0824 72.3503 17.4678ZM69.4856 8.4047H76.3418C77.6564 13.1241 79.6054 18.3837 80.5445 22.7744H75.8955C75.5902 22.2108 75.5902 21.4127 75.2379 20.8957C73.9233 20.8957 72.8432 20.7784 71.6924 20.8957C71.4108 21.53 71.3875 22.1871 71.2465 22.7744H66.3863C67.1844 19.2995 68.2175 16.0592 69.2506 12.8189C68.828 12.4196 68.2175 11.7625 68.2175 11.7625C68.2645 10.8231 68.9923 9.90736 69.4856 8.4047ZM59.7651 18.3367C63.099 18.6652 62.9817 12.3256 59.7651 12.5843C59.8586 14.9083 59.7651 16.787 59.7651 18.3367ZM55.1161 22.5394C55.1161 19.581 54.9281 15.6129 54.9281 13.1009C54.9281 12.4196 54.0825 11.95 53.6367 11.551C54.3645 10.8231 55.3274 8.4047 55.3274 8.4047C62.9817 7.442 67.1141 10.189 67.0434 15.9182C66.9964 21.154 61.9718 23.8545 55.1161 22.5394Z" fill="#009D5B"/>
</svg>
