<svg width="105" height="32" viewBox="0 0 105 32" fill="none" xmlns="http://www.w3.org/2000/svg">
<g clip-path="url(#clip0_48334_18195)">
<path d="M102.956 8.00635H99.2735V14.2718L97.7837 16.0843L96.2878 14.2718V8.00635H92.6055V15.6009L95.9423 19.6339V23.9546H99.619V19.6339L102.956 15.6009V8.00635Z" fill="black"/>
<path d="M54.3795 8.09326H50.7031V23.9898H54.3795V8.09326Z" fill="black"/>
<path d="M85.7344 23.8911H82.0525V9.84143L83.8935 8.00049H90.7399V11.6827H85.7344V23.8911Z" fill="black"/>
<path d="M73.8598 20.2838V17.8789H77.8933V14.2026H73.8598V11.6884L75.2867 11.6827L79.5559 11.7L79.5675 8.01772L75.2924 8.00049L72.0072 8.01772L70.1775 9.85904V22.1191L72.0188 23.96H75.2751L79.5559 23.9776L79.5675 20.301L75.2811 20.2838H73.8598Z" fill="black"/>
<path d="M63.6886 18.1026L62.1927 19.9091L60.6968 18.1026V8.08594H57.0205V19.4201L60.7602 23.9537H63.6252L67.3649 19.4201V8.08594H63.6886V18.1026Z" fill="black"/>
<path d="M8.13896 8.05273H5.69357H2V24.001H3.82973H8.11011H11.3952L13.225 22.1601V9.89367L11.384 8.05273H8.13896ZM9.55988 20.3248H8.13296H5.69357V11.6945H8.13296H9.55988V20.3248Z" fill="black"/>
<path d="M20.7102 11.6827L24.9793 11.7L24.9966 8.01772L20.7162 8.00049L17.4311 8.01772L15.6013 9.85904V22.1191L17.4423 23.96H20.6989L24.9793 23.9776L24.9966 20.301L20.7102 20.2838H19.2836V17.8789H23.3167V14.2026H19.2836V11.6884L20.7102 11.6827Z" fill="black"/>
<path d="M30.7499 8.05273H27.0732V22.1425L28.9142 23.9782H35.7554V20.3015H30.7499V8.05273Z" fill="black"/>
<path d="M44.5348 8.08721V14.2032H41.2325V8.05273H37.5562V23.9894H41.2325V17.8794H44.5348V23.9894H48.2172V8.08721H44.5348Z" fill="black"/>
<path d="M5.68779 20.3237H2.02271V23.9884H5.68779V20.3237Z" fill="#ED4135"/>
<path d="M102.95 8.00635H99.2849V11.6714H102.95V8.00635Z" fill="#ED4135"/>
</g>
<defs>
<clipPath id="clip0_48334_18195">
<rect width="100.955" height="16" fill="white" transform="translate(2 8)"/>
</clipPath>
</defs>
</svg>
