<svg width="54" height="24" viewBox="0 0 54 24" fill="none" xmlns="http://www.w3.org/2000/svg">
<path fill-rule="evenodd" clip-rule="evenodd" d="M3.3492 8.05248C3.27628 8.05248 3.20634 8.08086 3.15478 8.13138C3.10321 8.1819 3.07424 8.25042 3.07424 8.32186V16.7238H14.6508C14.7237 16.7238 14.7937 16.6955 14.8452 16.6449C14.8968 16.5944 14.9258 16.5259 14.9258 16.4545V8.32186C14.9258 8.25042 14.8968 8.1819 14.8452 8.13138C14.7937 8.08086 14.7237 8.05248 14.6508 8.05248H3.3492ZM2.39517 7.38717C2.64819 7.13927 2.99137 7 3.3492 7H14.6508C15.0086 7 15.3518 7.13927 15.6048 7.38717C15.8579 7.63506 16 7.97128 16 8.32186V16.4545C16 16.805 15.8579 17.1413 15.6048 17.3892C15.3518 17.637 15.0086 17.7763 14.6508 17.7763H2V8.32186C2 7.97128 2.14215 7.63506 2.39517 7.38717Z" fill="black"/>
<path fill-rule="evenodd" clip-rule="evenodd" d="M15.2632 11.1448H2V10.0396H15.2632V11.1448Z" fill="black"/>
<path fill-rule="evenodd" clip-rule="evenodd" d="M8.63171 15.5657H5.31592V14.4604H8.63171V15.5657Z" fill="black"/>
<path d="M21.25 9.14L24.01 13.42C24.2567 13.8 24.55 14.3367 24.89 15.03H24.92C24.8667 14.2967 24.84 13.7133 24.84 13.28V9.14H25.98V16.58H24.74L21.99 12.31C21.75 11.9233 21.45 11.3867 21.09 10.7H21.07C21.1167 11.4333 21.14 12.0133 21.14 12.44V16.58H20V9.14H21.25Z" fill="black"/>
<path d="M30.6914 16.73C29.9914 16.73 29.3747 16.5667 28.8414 16.24C28.3081 15.9067 27.8947 15.4467 27.6014 14.86C27.3081 14.2733 27.1614 13.61 27.1614 12.87C27.1614 12.1367 27.3047 11.4767 27.5914 10.89C27.8781 10.3033 28.2914 9.84333 28.8314 9.51C29.3714 9.17 30.0014 9 30.7214 9C31.1347 9 31.5181 9.05667 31.8714 9.17C32.2247 9.27667 32.5281 9.43 32.7814 9.63C33.3414 10.0833 33.6747 10.6933 33.7814 11.46H32.5814C32.5014 11.0267 32.2981 10.68 31.9714 10.42C31.6447 10.16 31.2214 10.03 30.7014 10.03C30.2147 10.03 29.7947 10.1533 29.4414 10.4C29.0947 10.64 28.8314 10.9767 28.6514 11.41C28.4714 11.8367 28.3814 12.3233 28.3814 12.87C28.3814 13.4233 28.4781 13.9133 28.6714 14.34C28.8647 14.7667 29.1347 15.1 29.4814 15.34C29.8347 15.5733 30.2447 15.69 30.7114 15.69C31.2981 15.69 31.7581 15.52 32.0914 15.18C32.4247 14.84 32.6147 14.41 32.6614 13.89H33.8614C33.8481 14.2633 33.7614 14.63 33.6014 14.99C33.4481 15.35 33.2381 15.6633 32.9714 15.93C32.4181 16.4633 31.6581 16.73 30.6914 16.73Z" fill="black"/>
<path d="M34.9805 9.14H40.3505V10.18H36.1805V12.22H39.9105V13.21H36.1805V15.51H40.4505V16.58H34.9805V9.14Z" fill="black"/>
<path d="M43.2304 9.14L44.6204 12.93C44.8071 13.4633 45.0404 14.27 45.3204 15.35H45.3404C45.6204 14.2767 45.8537 13.47 46.0404 12.93L47.4004 9.14H49.0204V16.58H47.8804V12.39C47.8804 11.93 47.9037 11.2267 47.9504 10.28H47.9304C47.7237 11.1267 47.5471 11.76 47.4004 12.18L45.7904 16.58H44.8304L43.2204 12.18C43.0737 11.76 42.8937 11.1267 42.6804 10.28H42.6604C42.7071 11.2267 42.7304 11.93 42.7304 12.39V16.58H41.6504V9.14H43.2304Z" fill="black"/>
<path d="M50.4888 9.14H51.6888V16.58H50.4888V9.14Z" fill="black"/>
</svg>
